<?xml version="1.0" encoding="utf-8"?>
<!-- Generator: Adobe Illustrator 27.5.0, SVG Export Plug-In . SVG Version: 6.00 Build 0)  -->
<svg version="1.1" xmlns="http://www.w3.org/2000/svg" xmlns:xlink="http://www.w3.org/1999/xlink" x="0px" y="0px"
	 viewBox="0 0 500 500" style="enable-background:new 0 0 500 500;" xml:space="preserve">
<g id="Background_Simple">
	<g>
		<path style="fill:#92E3A9;" d="M340.694,47.106c0,0-277.198,41.66-310.846,114.564C-3.8,234.575,82.724,386.794,133.197,429.255
			c50.473,42.461,266.783,0.801,315.653-63.291S466.475,27.879,340.694,47.106z"/>
		<path style="opacity:0.7;fill:#FFFFFF;" d="M340.694,47.106c0,0-277.198,41.66-310.846,114.564
			C-3.8,234.575,82.724,386.794,133.197,429.255c50.473,42.461,266.783,0.801,315.653-63.291S466.475,27.879,340.694,47.106z"/>
	</g>
</g>
<g id="Plants">
	<g>
		<path style="fill:#263238;" d="M360.999,413.6c1.518,0.663,5.229,0.579,5.232,0.579c0.038-0.001-0.798-2.43-0.868-2.577
			c-0.814-1.704-3.39-4.517-5.486-4.234c-1.51,0.204-2.349,1.715-2.009,3.136C358.218,411.957,359.707,413.035,360.999,413.6z"/>
		<path style="fill:#263238;" d="M362.281,424.352c1.574,0.229,4.887-0.731,5.15-0.809c0.523,1.854,1.21,3.715,2.009,5.559
			c0.455,1.055,0.947,2.103,1.454,3.148c-0.302-0.442-0.576-0.836-0.62-0.887c-1.236-1.428-4.463-3.461-6.409-2.634
			c-1.403,0.595-1.813,2.274-1.109,3.555c0.719,1.308,2.441,1.955,3.836,2.159c1.416,0.207,4.257-0.556,5.006-0.768
			c0.198,0.399,0.392,0.799,0.592,1.197c0.959,1.91,1.925,3.812,2.815,5.706c0.314,0.667,0.598,1.336,0.886,2.005
			c-0.269-0.393-0.499-0.721-0.539-0.768c-1.235-1.428-4.462-3.461-6.409-2.634c-1.402,0.595-1.813,2.274-1.109,3.555
			c0.72,1.308,2.441,1.955,3.836,2.159c1.352,0.197,3.98-0.483,4.871-0.73c0.273,0.693,0.549,1.387,0.782,2.071
			c0.149,0.471,0.326,0.913,0.449,1.394c0.132,0.474,0.263,0.943,0.393,1.407c0.217,0.903,0.446,1.834,0.635,2.721
			c0.136,0.616,0.255,1.205,0.376,1.798c-0.305-0.668-0.929-1.963-0.993-2.066c-1.004-1.599-3.886-4.097-5.936-3.575
			c-1.476,0.376-2.137,1.973-1.634,3.346c0.513,1.402,2.116,2.303,3.465,2.715c1.485,0.454,4.773,0.039,5.184-0.015
			c0.197,0.982,0.379,1.94,0.537,2.846c0.118,0.671,0.226,1.315,0.325,1.935h1.317c-0.124-0.689-0.26-1.41-0.41-2.165
			c-0.196-0.998-0.425-2.061-0.671-3.151c0.247-0.098,1.65-0.665,2.892-1.36c1.082,1.172,3.856,2.544,4.215,2.718
			c-0.377,0.928-0.754,1.827-1.122,2.67c-0.194,0.447-0.383,0.868-0.57,1.287h1.392c0.111-0.265,0.22-0.524,0.332-0.799
			c0.387-0.941,0.783-1.954,1.178-2.998c0.398,0.083,3.652,0.744,5.169,0.402c1.375-0.311,3.042-1.089,3.658-2.45
			c0.603-1.331,0.063-2.973-1.381-3.459c-2.004-0.673-5.064,1.603-6.185,3.123c-0.066,0.09-0.675,1.142-1.048,1.813
			c0.159-0.427,0.319-0.841,0.478-1.283c0.32-0.872,0.614-1.752,0.933-2.697c0.138-0.462,0.278-0.928,0.419-1.4
			c0.15-0.464,0.249-0.974,0.377-1.465c0.273-1.145,0.493-2.318,0.689-3.505c0.764,0.278,3.492,1.227,4.906,1.128
			c1.407-0.099,3.172-0.616,3.986-1.867c0.798-1.225,0.513-2.93-0.841-3.628c-1.88-0.969-5.249,0.818-6.587,2.15
			c-0.083,0.083-0.936,1.147-1.393,1.74c0.112-0.714,0.228-1.427,0.318-2.153c0.26-2.097,0.458-4.227,0.666-6.352
			c0.063-0.651,0.134-1.298,0.202-1.947c0.271,0.102,3.489,1.3,5.073,1.189c1.407-0.098,3.172-0.616,3.986-1.867
			c0.798-1.225,0.513-2.93-0.841-3.628c-1.879-0.969-5.249,0.818-6.587,2.15c-0.101,0.1-1.326,1.633-1.619,2.038
			c0.151-1.429,0.315-2.851,0.533-4.246c0.298-1.926,0.698-3.799,1.219-5.585c0.126,0.048,3.48,1.314,5.101,1.2
			c1.407-0.099,3.172-0.616,3.987-1.867c0.798-1.225,0.513-2.93-0.841-3.628c-1.88-0.969-5.249,0.818-6.587,2.15
			c-0.105,0.105-1.422,1.754-1.64,2.07c0.031-0.106,0.052-0.22,0.085-0.325c0.58-1.9,1.381-3.667,2.212-5.285
			c0.481-0.941,0.993-1.814,1.511-2.651c0.601,0.3,3.36,1.639,4.83,1.698c1.409,0.056,3.22-0.264,4.167-1.418
			c0.927-1.13,0.832-2.856-0.437-3.699c-1.762-1.17-5.307,0.236-6.784,1.413c-0.08,0.064-0.824,0.805-1.359,1.352
			c0.239-0.375,0.479-0.766,0.716-1.12c0.885-1.332,1.777-2.498,2.575-3.524c0.459-0.579,0.885-1.095,1.289-1.572
			c0.742-0.013,3.735-0.104,5.043-0.718c1.276-0.6,2.737-1.718,3.045-3.178c0.302-1.43-0.578-2.918-2.093-3.081
			c-2.102-0.227-4.601,2.655-5.369,4.38c-0.066,0.149-0.837,2.6-0.798,2.6c0,0,0.036,0,0.045,0
			c-0.398,0.452-0.819,0.941-1.269,1.484c-0.823,1.01-1.742,2.159-2.659,3.478c-0.92,1.315-1.882,2.77-2.758,4.393
			c-0.88,1.626-1.722,3.382-2.356,5.303c-0.007,0.022-0.012,0.045-0.019,0.067c0.011-0.62-0.016-2.353-0.034-2.485
			c-0.243-1.873-1.812-5.349-3.892-5.733c-1.498-0.277-2.767,0.897-2.886,2.354c-0.122,1.488,0.957,2.977,2.009,3.917
			c1.186,1.06,4.479,2.086,4.742,2.167c-0.587,1.835-1.04,3.766-1.391,5.745c-0.202,1.132-0.37,2.277-0.524,3.428
			c-0.008-0.536-0.019-1.015-0.028-1.082c-0.243-1.873-1.812-5.348-3.892-5.733c-1.498-0.277-2.767,0.897-2.886,2.354
			c-0.122,1.488,0.957,2.977,2.009,3.917c1.067,0.953,3.857,1.885,4.599,2.121c-0.054,0.442-0.114,0.883-0.167,1.325
			c-0.254,2.122-0.497,4.241-0.8,6.312c-0.106,0.73-0.238,1.445-0.367,2.16c-0.008-0.476-0.018-0.877-0.026-0.937
			c-0.243-1.873-1.812-5.349-3.891-5.733c-1.499-0.277-2.768,0.897-2.887,2.354c-0.122,1.487,0.957,2.977,2.009,3.916
			c1.018,0.91,3.586,1.793,4.466,2.078c-0.154,0.729-0.308,1.459-0.49,2.159c-0.135,0.475-0.233,0.941-0.395,1.41
			c-0.151,0.468-0.301,0.931-0.449,1.39c-0.318,0.873-0.64,1.776-0.971,2.62c-0.226,0.589-0.452,1.146-0.678,1.707
			c0.114-0.725,0.308-2.15,0.311-2.271c0.029-1.254-0.417-3.294-1.303-4.727c0.006-0.185-0.005-0.37-0.034-0.553
			c-0.232-1.443-1.588-2.515-3.06-2.123c-2.043,0.544-3.34,4.131-3.436,6.017c-0.006,0.111,0.067,1.325,0.126,2.091
			c-0.103-0.445-0.198-0.877-0.309-1.333c-0.214-0.904-0.455-1.799-0.71-2.764c-0.139-0.461-0.281-0.927-0.423-1.398
			c-0.131-0.469-0.33-0.949-0.494-1.429c-0.404-1.105-0.867-2.206-1.359-3.303c0.791-0.19,3.59-0.903,4.714-1.766
			c1.119-0.858,2.306-2.263,2.295-3.756c-0.01-1.462-1.188-2.727-2.703-2.562c-2.103,0.228-3.927,3.577-4.309,5.427
			c-0.024,0.115-0.148,1.473-0.202,2.22c-0.301-0.658-0.597-1.316-0.923-1.971c-0.939-1.893-1.949-3.779-2.949-5.665
			c-0.306-0.578-0.605-1.157-0.906-1.735c0.282-0.065,3.628-0.841,4.887-1.807c1.119-0.858,2.306-2.263,2.295-3.756
			c-0.01-1.461-1.188-2.727-2.703-2.562c-2.103,0.228-3.927,3.577-4.309,5.427c-0.029,0.139-0.205,2.093-0.225,2.592
			c-0.662-1.274-1.31-2.551-1.898-3.835c-0.813-1.771-1.513-3.553-2.064-5.33c0.132-0.03,3.627-0.824,4.916-1.814
			c1.119-0.858,2.306-2.263,2.295-3.756c-0.01-1.462-1.188-2.727-2.703-2.562c-2.102,0.228-3.927,3.577-4.308,5.427
			c-0.03,0.145-0.219,2.248-0.225,2.631c-0.033-0.105-0.078-0.211-0.109-0.317c-0.563-1.905-0.87-3.821-1.07-5.629
			c-0.118-1.05-0.172-2.06-0.202-3.045c0.666-0.081,3.707-0.486,4.965-1.248c1.207-0.731,2.541-1.997,2.694-3.481
			c0.15-1.454-0.882-2.841-2.405-2.844c-2.115-0.004-4.296,3.125-4.879,4.921c-0.032,0.098-0.244,1.126-0.387,1.878
			c-0.007-0.444-0.023-0.903-0.021-1.329c0.003-1.599,0.104-3.063,0.204-4.359c0.063-0.737,0.134-1.401,0.208-2.022
			c0.612-0.421,3.058-2.147,3.81-3.381c0.734-1.204,1.335-2.942,0.787-4.331c-0.537-1.36-2.092-2.115-3.445-1.416
			c-1.879,0.971-2.373,4.753-2.063,6.616c0.027,0.161,0.737,2.63,0.769,2.609c0,0,0.03-0.021,0.037-0.026
			c-0.083,0.596-0.164,1.237-0.239,1.938c-0.129,1.296-0.262,2.762-0.3,4.368c-0.042,1.604-0.042,3.348,0.124,5.185
			c0.164,1.841,0.429,3.77,0.961,5.722c0.006,0.022,0.015,0.044,0.021,0.066c-0.333-0.523-1.312-1.953-1.4-2.054
			c-1.236-1.428-4.462-3.461-6.409-2.635c-1.402,0.596-1.813,2.275-1.109,3.556C359.164,423.501,360.885,424.148,362.281,424.352z"
			/>
		<path style="fill:#263238;" d="M398.544,414.416c0.033,0.021,0.675-2.467,0.698-2.628c0.26-1.87-0.336-5.637-2.24-6.557
			c-1.372-0.663-2.905,0.134-3.405,1.508c-0.511,1.402,0.137,3.124,0.903,4.308C395.4,412.437,398.542,414.414,398.544,414.416z"/>
	</g>
	<g>
		<path style="fill:#263238;" d="M81.28,407.813c1.712,0.748,5.9,0.653,5.903,0.653c0.043-0.001-0.9-2.741-0.979-2.908
			c-0.919-1.922-3.825-5.096-6.189-4.777c-1.703,0.23-2.65,1.935-2.266,3.539C78.142,405.959,79.822,407.176,81.28,407.813z"/>
		<path style="fill:#263238;" d="M82.726,419.943c1.776,0.259,5.513-0.825,5.81-0.912c0.59,2.092,1.365,4.191,2.267,6.272
			c0.514,1.19,1.069,2.373,1.64,3.552c-0.341-0.499-0.649-0.943-0.699-1.001c-1.394-1.611-5.035-3.905-7.23-2.972
			c-1.583,0.671-2.045,2.566-1.251,4.011c0.811,1.476,2.754,2.206,4.328,2.435c1.598,0.233,4.803-0.627,5.648-0.866
			c0.224,0.45,0.442,0.902,0.668,1.351c1.082,2.155,2.171,4.301,3.175,6.438c0.354,0.753,0.675,1.507,1,2.262
			c-0.303-0.443-0.562-0.814-0.608-0.867c-1.394-1.611-5.034-3.905-7.23-2.972c-1.582,0.672-2.046,2.566-1.251,4.011
			c0.812,1.476,2.753,2.206,4.328,2.435c1.525,0.222,4.49-0.545,5.495-0.824c0.309,0.782,0.619,1.565,0.883,2.336
			c0.168,0.531,0.367,1.03,0.506,1.573c0.149,0.534,0.297,1.064,0.443,1.588c0.245,1.019,0.503,2.069,0.717,3.07
			c0.154,0.695,0.288,1.36,0.424,2.029c-0.344-0.754-1.048-2.215-1.121-2.331c-1.133-1.804-4.384-4.622-6.697-4.033
			c-1.666,0.425-2.411,2.226-1.844,3.775c0.578,1.582,2.387,2.598,3.909,3.063c1.676,0.512,5.385,0.044,5.848-0.017
			c0.222,1.108,0.428,2.188,0.606,3.211c0.133,0.757,0.255,1.484,0.367,2.182h1.486c-0.14-0.778-0.293-1.591-0.463-2.442
			c-0.221-1.126-0.48-2.325-0.757-3.554c0.279-0.111,1.861-0.751,3.263-1.534c1.221,1.322,4.35,2.87,4.755,3.067
			c-0.426,1.047-0.85,2.061-1.266,3.012c-0.219,0.504-0.432,0.979-0.644,1.452h1.571c0.125-0.299,0.248-0.591,0.375-0.902
			c0.437-1.061,0.883-2.205,1.329-3.382c0.449,0.094,4.121,0.84,5.832,0.453c1.552-0.351,3.432-1.229,4.127-2.764
			c0.68-1.502,0.071-3.355-1.558-3.902c-2.261-0.76-5.714,1.809-6.978,3.523c-0.075,0.101-0.762,1.289-1.183,2.045
			c0.18-0.482,0.36-0.948,0.539-1.447c0.361-0.984,0.692-1.976,1.052-3.043c0.156-0.521,0.313-1.048,0.473-1.579
			c0.169-0.524,0.281-1.099,0.425-1.653c0.308-1.292,0.556-2.615,0.777-3.954c0.862,0.314,3.94,1.385,5.535,1.272
			c1.587-0.111,3.578-0.694,4.497-2.106c0.9-1.382,0.579-3.306-0.949-4.093c-2.12-1.094-5.922,0.923-7.432,2.426
			c-0.094,0.093-1.056,1.294-1.572,1.963c0.127-0.806,0.257-1.609,0.358-2.429c0.294-2.366,0.517-4.769,0.751-7.166
			c0.071-0.734,0.151-1.465,0.228-2.197c0.306,0.115,3.937,1.467,5.723,1.341c1.587-0.111,3.578-0.694,4.497-2.106
			c0.9-1.382,0.579-3.305-0.949-4.093c-2.12-1.094-5.922,0.922-7.431,2.425c-0.114,0.113-1.496,1.842-1.826,2.299
			c0.17-1.612,0.355-3.216,0.601-4.79c0.336-2.173,0.787-4.286,1.375-6.301c0.142,0.054,3.926,1.482,5.755,1.353
			c1.587-0.112,3.579-0.695,4.498-2.106c0.9-1.382,0.579-3.305-0.949-4.093c-2.121-1.094-5.922,0.923-7.432,2.425
			c-0.118,0.118-1.604,1.979-1.85,2.336c0.035-0.12,0.059-0.248,0.095-0.367c0.655-2.143,1.559-4.137,2.496-5.962
			c0.543-1.062,1.121-2.046,1.704-2.991c0.677,0.338,3.79,1.85,5.449,1.916c1.59,0.063,3.633-0.298,4.702-1.599
			c1.046-1.275,0.938-3.222-0.493-4.173c-1.988-1.32-5.987,0.266-7.653,1.594c-0.09,0.072-0.93,0.908-1.533,1.526
			c0.27-0.423,0.541-0.864,0.807-1.263c0.998-1.503,2.005-2.818,2.905-3.975c0.517-0.654,0.998-1.235,1.454-1.774
			c0.837-0.015,4.214-0.117,5.689-0.81c1.44-0.677,3.087-1.938,3.436-3.586c0.341-1.614-0.652-3.292-2.361-3.476
			c-2.372-0.256-5.191,2.995-6.058,4.941c-0.075,0.168-0.944,2.933-0.9,2.933c0,0,0.041,0,0.051,0
			c-0.449,0.51-0.924,1.061-1.432,1.675c-0.928,1.14-1.966,2.436-3,3.923c-1.038,1.484-2.123,3.124-3.111,4.956
			c-0.992,1.835-1.942,3.815-2.658,5.983c-0.008,0.024-0.013,0.051-0.021,0.076c0.012-0.699-0.018-2.654-0.038-2.804
			c-0.274-2.113-2.044-6.034-4.391-6.468c-1.69-0.312-3.121,1.012-3.256,2.656c-0.137,1.679,1.08,3.359,2.267,4.419
			c1.338,1.195,5.053,2.353,5.349,2.445c-0.662,2.07-1.173,4.248-1.57,6.481c-0.228,1.277-0.417,2.569-0.591,3.868
			c-0.009-0.605-0.021-1.145-0.031-1.221c-0.274-2.113-2.045-6.034-4.391-6.468c-1.69-0.313-3.122,1.012-3.256,2.655
			c-0.138,1.679,1.079,3.359,2.266,4.419c1.204,1.076,4.352,2.127,5.188,2.393c-0.061,0.499-0.128,0.996-0.188,1.495
			c-0.286,2.394-0.561,4.785-0.903,7.121c-0.12,0.824-0.268,1.63-0.414,2.437c-0.008-0.537-0.02-0.989-0.029-1.057
			c-0.274-2.113-2.045-6.034-4.39-6.468c-1.691-0.312-3.122,1.012-3.257,2.656c-0.138,1.678,1.08,3.359,2.267,4.418
			c1.149,1.027,4.046,2.023,5.038,2.344c-0.174,0.823-0.347,1.646-0.553,2.436c-0.153,0.536-0.263,1.062-0.446,1.591
			c-0.171,0.528-0.339,1.051-0.506,1.568c-0.359,0.985-0.722,2.004-1.096,2.956c-0.255,0.664-0.51,1.293-0.765,1.926
			c0.129-0.818,0.348-2.426,0.351-2.562c0.033-1.415-0.47-3.716-1.47-5.333c0.006-0.209-0.006-0.417-0.039-0.624
			c-0.262-1.628-1.791-2.838-3.453-2.395c-2.305,0.614-3.768,4.661-3.877,6.788c-0.007,0.126,0.076,1.495,0.142,2.358
			c-0.116-0.502-0.223-0.99-0.349-1.504c-0.242-1.02-0.513-2.03-0.801-3.119c-0.157-0.521-0.317-1.046-0.477-1.578
			c-0.148-0.53-0.372-1.071-0.557-1.612c-0.456-1.247-0.979-2.488-1.533-3.727c0.893-0.214,4.051-1.019,5.319-1.992
			c1.263-0.969,2.601-2.554,2.59-4.237c-0.012-1.649-1.34-3.077-3.049-2.891c-2.372,0.257-4.43,4.036-4.861,6.123
			c-0.027,0.13-0.167,1.662-0.228,2.505c-0.339-0.742-0.674-1.484-1.041-2.224c-1.06-2.135-2.199-4.263-3.327-6.391
			c-0.346-0.652-0.682-1.305-1.022-1.958c0.319-0.073,4.093-0.949,5.513-2.038c1.262-0.969,2.601-2.553,2.589-4.238
			c-0.012-1.649-1.341-3.076-3.049-2.89c-2.372,0.258-4.43,4.036-4.861,6.122c-0.032,0.157-0.231,2.362-0.255,2.925
			c-0.747-1.438-1.478-2.878-2.141-4.327c-0.918-1.998-1.708-4.009-2.329-6.014c0.149-0.034,4.092-0.93,5.547-2.046
			c1.263-0.969,2.602-2.553,2.589-4.238c-0.011-1.649-1.34-3.076-3.049-2.891c-2.372,0.257-4.43,4.036-4.86,6.123
			c-0.034,0.164-0.247,2.536-0.254,2.968c-0.037-0.119-0.088-0.238-0.123-0.358c-0.636-2.149-0.982-4.311-1.207-6.35
			c-0.133-1.185-0.194-2.325-0.228-3.435c0.752-0.092,4.182-0.548,5.602-1.408c1.362-0.824,2.867-2.253,3.039-3.927
			c0.169-1.641-0.995-3.205-2.713-3.208c-2.386-0.005-4.847,3.525-5.504,5.552c-0.036,0.11-0.275,1.271-0.437,2.119
			c-0.008-0.501-0.026-1.019-0.023-1.499c0.003-1.804,0.117-3.456,0.23-4.918c0.071-0.831,0.152-1.581,0.235-2.282
			c0.69-0.475,3.45-2.423,4.298-3.815c0.828-1.359,1.506-3.319,0.887-4.886c-0.606-1.534-2.36-2.386-3.886-1.597
			c-2.12,1.096-2.677,5.362-2.327,7.464c0.031,0.181,0.831,2.967,0.868,2.943c0,0,0.034-0.023,0.042-0.029
			c-0.093,0.673-0.185,1.396-0.27,2.187c-0.145,1.462-0.296,3.116-0.338,4.928c-0.047,1.81-0.048,3.778,0.139,5.85
			c0.185,2.077,0.484,4.254,1.084,6.456c0.007,0.025,0.017,0.05,0.024,0.075c-0.375-0.59-1.48-2.203-1.579-2.318
			c-1.394-1.611-5.034-3.905-7.23-2.972c-1.582,0.672-2.046,2.566-1.251,4.011C79.21,418.984,81.151,419.714,82.726,419.943z"/>
		<path style="fill:#263238;" d="M123.638,408.734c0.037,0.023,0.762-2.783,0.787-2.966c0.294-2.11-0.379-6.36-2.528-7.398
			c-1.547-0.748-3.278,0.152-3.841,1.702c-0.576,1.582,0.154,3.524,1.019,4.86C120.09,406.501,123.635,408.732,123.638,408.734z"/>
	</g>
	<g>
		<path style="fill:#263238;" d="M135.035,435.589c0.778,0.34,2.682,0.297,2.684,0.297c0.02,0-0.409-1.246-0.445-1.322
			c-0.418-0.874-1.739-2.317-2.813-2.171c-0.774,0.105-1.205,0.88-1.03,1.609C133.608,434.746,134.372,435.299,135.035,435.589z"/>
		<path style="fill:#263238;" d="M135.692,441.104c0.807,0.118,2.506-0.375,2.641-0.415c0.268,0.951,0.621,1.905,1.031,2.851
			c0.234,0.541,0.486,1.079,0.745,1.615c-0.155-0.227-0.295-0.429-0.318-0.455c-0.634-0.733-2.289-1.775-3.287-1.351
			c-0.719,0.305-0.93,1.166-0.569,1.824c0.369,0.671,1.252,1.003,1.967,1.107c0.726,0.106,2.183-0.285,2.568-0.394
			c0.102,0.205,0.201,0.41,0.304,0.614c0.492,0.98,0.987,1.955,1.444,2.927c0.161,0.342,0.307,0.685,0.454,1.028
			c-0.138-0.202-0.256-0.37-0.276-0.394c-0.634-0.732-2.289-1.775-3.287-1.351c-0.719,0.305-0.93,1.166-0.569,1.823
			c0.369,0.671,1.252,1.003,1.968,1.107c0.693,0.101,2.041-0.248,2.498-0.375c0.14,0.356,0.281,0.711,0.401,1.062
			c0.077,0.241,0.167,0.468,0.23,0.715c0.068,0.243,0.135,0.484,0.201,0.722c0.111,0.463,0.229,0.941,0.326,1.396
			c0.07,0.316,0.131,0.618,0.193,0.922c-0.156-0.343-0.477-1.007-0.51-1.06c-0.515-0.82-1.993-2.101-3.044-1.833
			c-0.757,0.193-1.096,1.012-0.838,1.716c0.263,0.719,1.085,1.181,1.777,1.392c0.762,0.233,2.448,0.02,2.659-0.008
			c0.101,0.504,0.195,0.995,0.275,1.46c0.061,0.344,0.116,0.675,0.167,0.992h0.675c-0.064-0.354-0.133-0.723-0.21-1.11
			c-0.1-0.512-0.218-1.057-0.344-1.616c0.127-0.05,0.846-0.341,1.483-0.697c0.555,0.601,1.977,1.305,2.162,1.394
			c-0.193,0.476-0.387,0.937-0.576,1.369c-0.1,0.229-0.196,0.445-0.293,0.66h0.714c0.057-0.136,0.113-0.269,0.171-0.41
			c0.199-0.483,0.401-1.002,0.604-1.538c0.204,0.043,1.873,0.382,2.651,0.206c0.706-0.16,1.56-0.559,1.876-1.256
			c0.309-0.683,0.032-1.525-0.708-1.774c-1.028-0.345-2.597,0.822-3.172,1.602c-0.034,0.046-0.346,0.586-0.538,0.93
			c0.082-0.219,0.163-0.431,0.245-0.658c0.164-0.447,0.315-0.898,0.478-1.383c0.071-0.237,0.143-0.476,0.215-0.718
			c0.077-0.238,0.128-0.5,0.193-0.751c0.14-0.587,0.253-1.189,0.353-1.797c0.392,0.143,1.791,0.629,2.516,0.578
			c0.722-0.051,1.627-0.316,2.044-0.957c0.409-0.628,0.263-1.503-0.431-1.861c-0.964-0.497-2.692,0.419-3.379,1.103
			c-0.043,0.042-0.48,0.588-0.715,0.892c0.058-0.366,0.117-0.732,0.163-1.104c0.133-1.075,0.235-2.168,0.341-3.258
			c0.032-0.334,0.069-0.666,0.104-0.999c0.139,0.052,1.79,0.667,2.602,0.61c0.722-0.051,1.627-0.316,2.045-0.957
			c0.409-0.628,0.263-1.503-0.431-1.861c-0.964-0.497-2.692,0.419-3.378,1.102c-0.052,0.051-0.68,0.837-0.83,1.045
			c0.077-0.733,0.161-1.462,0.273-2.178c0.153-0.988,0.358-1.948,0.625-2.864c0.064,0.025,1.785,0.674,2.616,0.615
			c0.722-0.051,1.627-0.316,2.045-0.958c0.409-0.628,0.263-1.503-0.431-1.861c-0.964-0.497-2.692,0.419-3.379,1.102
			c-0.054,0.054-0.729,0.9-0.841,1.062c0.016-0.054,0.027-0.113,0.043-0.167c0.298-0.974,0.709-1.881,1.135-2.71
			c0.247-0.483,0.51-0.93,0.775-1.36c0.308,0.154,1.723,0.841,2.477,0.871c0.723,0.029,1.652-0.135,2.137-0.727
			c0.476-0.579,0.427-1.465-0.224-1.897c-0.904-0.6-2.722,0.121-3.479,0.725c-0.041,0.033-0.423,0.413-0.697,0.694
			c0.123-0.192,0.246-0.393,0.367-0.574c0.454-0.683,0.911-1.281,1.321-1.807c0.235-0.297,0.454-0.561,0.661-0.806
			c0.381-0.007,1.915-0.053,2.587-0.368c0.655-0.307,1.404-0.881,1.562-1.63c0.155-0.734-0.296-1.497-1.073-1.58
			c-1.078-0.116-2.36,1.362-2.754,2.247c-0.034,0.077-0.429,1.334-0.409,1.333c0,0,0.019,0,0.023,0
			c-0.204,0.232-0.42,0.482-0.651,0.761c-0.422,0.518-0.894,1.108-1.364,1.784c-0.472,0.674-0.965,1.42-1.414,2.253
			c-0.451,0.834-0.883,1.734-1.208,2.72c-0.004,0.011-0.006,0.023-0.01,0.034c0.006-0.318-0.008-1.207-0.017-1.275
			c-0.125-0.96-0.93-2.743-1.996-2.941c-0.768-0.142-1.419,0.46-1.48,1.207c-0.062,0.763,0.491,1.527,1.03,2.009
			c0.608,0.543,2.297,1.07,2.432,1.111c-0.301,0.941-0.533,1.931-0.714,2.946c-0.104,0.58-0.19,1.168-0.269,1.758
			c-0.004-0.275-0.01-0.521-0.014-0.555c-0.125-0.961-0.93-2.743-1.996-2.94c-0.768-0.142-1.419,0.46-1.48,1.207
			c-0.063,0.763,0.491,1.527,1.03,2.009c0.548,0.489,1.978,0.967,2.359,1.088c-0.028,0.227-0.058,0.453-0.085,0.68
			c-0.13,1.089-0.255,2.175-0.411,3.237c-0.054,0.374-0.122,0.741-0.188,1.108c-0.004-0.244-0.009-0.449-0.013-0.481
			c-0.125-0.961-0.929-2.743-1.996-2.94c-0.769-0.142-1.419,0.46-1.481,1.207c-0.063,0.763,0.491,1.527,1.031,2.009
			c0.522,0.467,1.839,0.919,2.29,1.066c-0.079,0.374-0.158,0.749-0.251,1.107c-0.07,0.243-0.119,0.483-0.203,0.724
			c-0.077,0.24-0.154,0.478-0.23,0.713c-0.163,0.448-0.328,0.911-0.498,1.344c-0.116,0.302-0.232,0.588-0.348,0.876
			c0.059-0.372,0.158-1.103,0.16-1.165c0.015-0.643-0.214-1.689-0.668-2.425c0.003-0.095-0.003-0.19-0.018-0.284
			c-0.119-0.74-0.814-1.29-1.57-1.089c-1.048,0.279-1.713,2.119-1.762,3.086c-0.003,0.057,0.034,0.68,0.064,1.072
			c-0.053-0.228-0.101-0.45-0.159-0.684c-0.11-0.464-0.233-0.923-0.364-1.418c-0.072-0.237-0.144-0.476-0.217-0.717
			c-0.067-0.241-0.169-0.487-0.253-0.733c-0.207-0.567-0.445-1.131-0.697-1.694c0.406-0.097,1.842-0.463,2.418-0.906
			c0.574-0.44,1.183-1.161,1.177-1.926c-0.005-0.75-0.609-1.399-1.386-1.314c-1.078,0.117-2.014,1.835-2.21,2.783
			c-0.012,0.059-0.076,0.756-0.104,1.139c-0.154-0.337-0.306-0.675-0.473-1.011c-0.482-0.971-1-1.938-1.512-2.905
			c-0.157-0.296-0.31-0.593-0.465-0.89c0.145-0.033,1.861-0.431,2.506-0.927c0.574-0.44,1.183-1.161,1.177-1.927
			c-0.005-0.75-0.609-1.398-1.386-1.314c-1.078,0.117-2.014,1.835-2.21,2.783c-0.015,0.072-0.105,1.074-0.116,1.33
			c-0.339-0.654-0.672-1.308-0.973-1.967c-0.417-0.908-0.776-1.823-1.059-2.734c0.068-0.015,1.86-0.423,2.522-0.93
			c0.574-0.44,1.183-1.161,1.177-1.926c-0.005-0.75-0.609-1.398-1.386-1.314c-1.078,0.117-2.014,1.835-2.21,2.783
			c-0.015,0.075-0.112,1.153-0.116,1.349c-0.017-0.054-0.04-0.108-0.056-0.163c-0.289-0.977-0.446-1.96-0.549-2.887
			c-0.061-0.539-0.088-1.057-0.104-1.562c0.342-0.042,1.901-0.249,2.547-0.64c0.619-0.375,1.303-1.024,1.382-1.785
			c0.077-0.746-0.452-1.457-1.233-1.458c-1.085-0.002-2.203,1.603-2.502,2.524c-0.016,0.05-0.125,0.578-0.199,0.963
			c-0.003-0.228-0.012-0.463-0.011-0.681c0.001-0.82,0.053-1.571,0.105-2.236c0.032-0.378,0.069-0.719,0.107-1.037
			c0.314-0.216,1.568-1.101,1.954-1.734c0.377-0.618,0.684-1.509,0.403-2.221c-0.275-0.697-1.073-1.085-1.767-0.726
			c-0.964,0.498-1.217,2.438-1.058,3.393c0.014,0.082,0.378,1.349,0.394,1.338c0,0,0.015-0.01,0.019-0.013
			c-0.042,0.306-0.084,0.634-0.123,0.994c-0.066,0.665-0.134,1.417-0.154,2.24c-0.021,0.823-0.022,1.717,0.063,2.66
			c0.084,0.944,0.22,1.934,0.493,2.935c0.003,0.011,0.008,0.023,0.011,0.034c-0.171-0.268-0.673-1.002-0.718-1.054
			c-0.634-0.733-2.289-1.775-3.287-1.351c-0.719,0.306-0.93,1.167-0.569,1.824C134.093,440.668,134.976,440.999,135.692,441.104z"/>
		<path style="fill:#263238;" d="M154.291,436.008c0.017,0.01,0.346-1.265,0.358-1.348c0.133-0.959-0.172-2.891-1.149-3.363
			c-0.704-0.34-1.49,0.069-1.746,0.774c-0.262,0.719,0.07,1.602,0.463,2.209C152.678,434.993,154.29,436.007,154.291,436.008z"/>
	</g>
</g>
<g id="Bags">
	<g style="opacity:0.3;">
		<path style="fill:none;stroke:#000000;stroke-linecap:round;stroke-linejoin:round;stroke-miterlimit:10;" d="M331.118,17.845
			c0.535-0.005,1.128,0.194,1.774,0.547c-0.295,0.345-0.606,0.783-0.918,1.362c-0.373-0.21-0.68-0.308-0.902-0.306
			c-1.96-0.005-5.196,9.089-7.514,24.163c-0.162,0.993-0.302,2.002-0.448,3.043l-1.811,0.337c0.121-0.855,0.269-1.876,0.449-3.033
			c0.449-2.821,1.044-6.39,1.802-9.951C326.582,19.69,329.179,17.847,331.118,17.845z"/>
		<path style="fill:none;stroke:#000000;stroke-linecap:round;stroke-linejoin:round;stroke-miterlimit:10;" d="M350.142,41.126
			l-1.762,0.25c-0.586-0.998-0.81-1.37-1.366-2.301c-6.181-10.194-10.835-15.877-13.597-18.263c0.322-0.652,0.638-1.131,0.941-1.416
			c4.561,3.677,10.671,13.082,14.454,19.323C349.471,39.807,349.648,40.277,350.142,41.126z"/>
		<g>
			<polygon style="fill:none;stroke:#000000;stroke-linecap:round;stroke-linejoin:round;stroke-miterlimit:10;" points="
				314.079,51.631 318.866,140.987 396.443,125.345 365.408,41.94 			"/>
			<path style="fill:none;stroke:#000000;stroke-linecap:round;stroke-linejoin:round;stroke-miterlimit:10;" d="M354.911,43.915
				l-1.82,0.339c-0.604-1.126-1.19-2.195-1.761-3.235c-8.831-15.848-14.587-21.971-16.277-21.994
				c-0.222,0.001-0.458,0.115-0.695,0.371c-0.303,0.285-0.619,0.764-0.941,1.416c-1.806,3.579-3.955,12.357-5.524,24.881
				c-0.148,1.092-0.273,2.21-0.403,3.36l-1.809,0.347c0.108-0.944,0.241-2.074,0.404-3.35c0.407-3.118,0.948-7.063,1.653-11.001
				c1.503-8.424,2.935-12.93,4.236-15.296c0.312-0.58,0.623-1.017,0.918-1.362c0.789-0.92,1.524-1.145,2.182-1.137
				c4.393,0.064,13.123,14.563,18.053,23.409C353.803,41.87,354.403,42.967,354.911,43.915z"/>
		</g>
		<polyline style="fill:none;stroke:#000000;stroke-linecap:round;stroke-linejoin:round;stroke-miterlimit:10;" points="
			320.327,49.928 308.1,49.63 307.196,136.404 318.866,140.987 		"/>
		
			<line style="fill:none;stroke:#000000;stroke-linecap:round;stroke-linejoin:round;stroke-miterlimit:10;" x1="307.196" y1="136.404" x2="317.539" y2="125.8"/>
		<polyline style="fill:none;stroke:#000000;stroke-linecap:round;stroke-linejoin:round;stroke-miterlimit:10;" points="
			361.919,42.381 361.093,39.075 353.129,40.659 		"/>
		
			<line style="fill:none;stroke:#000000;stroke-linecap:round;stroke-linejoin:round;stroke-miterlimit:10;" x1="351.329" y1="41.021" x2="327.889" y2="45.693"/>
		
			<line style="fill:none;stroke:#000000;stroke-linecap:round;stroke-linejoin:round;stroke-miterlimit:10;" x1="326.088" y1="46.046" x2="308.099" y2="49.632"/>
		
			<line style="fill:none;stroke:#000000;stroke-linecap:round;stroke-linejoin:round;stroke-miterlimit:10;" x1="361.097" y1="39.074" x2="356.282" y2="43.607"/>
	</g>
	<g style="opacity:0.3;">
		<path style="fill:none;stroke:#000000;stroke-linecap:round;stroke-linejoin:round;stroke-miterlimit:10;" d="M57.547,83.413
			c0,0,18.528,1.203,29.357,2.406c10.828,1.203,38.501-1.203,38.501-1.203s2.888,76.52,4.091,79.649
			c1.203,3.128,2.888,6.738,2.888,6.738s-7.46-0.481-35.132,0c-27.673,0.481-50.532-3.128-50.532-3.128s4.331-6.016,4.572-8.422
			C51.531,157.046,57.547,83.413,57.547,83.413z"/>
		<g>
			<path style="fill:none;stroke:#000000;stroke-linecap:round;stroke-linejoin:round;stroke-miterlimit:10;" d="M78.457,84.882
				l3.094-8.065c0.82-2.209,2.432-4.034,4.522-5.121l1.195-0.621L83,85.31L78.457,84.882z"/>
			<path style="fill:none;stroke:#000000;stroke-linecap:round;stroke-linejoin:round;stroke-miterlimit:10;" d="M108.061,85.826
				l-5.089,0.112L97.593,75.24c-0.05-0.174-0.135-0.365-0.247-0.572c-0.887-1.65-3.446-4.176-4.126-4.833
				c-0.107-0.107,5.283,2.32,5.283,2.32c1.268,0.578,2.33,1.529,3.043,2.726L108.061,85.826z"/>
			<path style="fill:none;stroke:#000000;stroke-linecap:round;stroke-linejoin:round;stroke-miterlimit:10;" d="M97.346,74.668
				l-3.127-0.488c-2.015-0.314-4.081-0.118-6,0.567l-2.394,1.273l1.445-4.944c0,0,3.469-1.751,5.95-1.241
				C93.9,70.491,96.459,73.017,97.346,74.668z"/>
		</g>
	</g>
	<g style="opacity:0.3;">
		<path style="fill:none;stroke:#000000;stroke-linecap:round;stroke-linejoin:round;stroke-miterlimit:10;" d="M41.735,275.509
			l1.844,91.784c0,0,8.331,4.2,26.842,2.745c18.51-1.455,33.688-6.532,39.164-8.65c8.673-3.355,14.896-9.534,14.896-9.534
			l-31.558-86.746L41.735,275.509z"/>
		<g>
			<path style="fill:none;stroke:#000000;stroke-linecap:round;stroke-linejoin:round;stroke-miterlimit:10;" d="M50.703,273.633
				l-1.566-46.585c0.454-2.312,1.752-4.372,3.64-5.781l1.079-0.805l1.295,52.311L50.703,273.633z"/>
			<path style="fill:none;stroke:#000000;stroke-linecap:round;stroke-linejoin:round;stroke-miterlimit:10;" d="M84.213,266.711
				l-5.005,0.929l-14.492-44.728c-0.078-0.164-0.192-0.338-0.336-0.525c-1.141-1.486-4.073-3.567-4.849-4.106
				c-0.122-0.088,5.588,1.44,5.588,1.44c1.345,0.366,2.545,1.134,3.442,2.201L84.213,266.711z"/>
			<path style="fill:none;stroke:#000000;stroke-linecap:round;stroke-linejoin:round;stroke-miterlimit:10;" d="M64.381,222.386
				l-3.562-0.417c-2.039,0.014-3.528,0.575-5.433,1.962l-1.343,1.396l-0.184-4.866c0,0,3.142-2.286,5.673-2.181
				C60.307,218.819,63.24,220.9,64.381,222.386z"/>
		</g>
	</g>
	<g style="opacity:0.3;">
		<g>
			<g>
				<polygon style="fill:none;stroke:#000000;stroke-linecap:round;stroke-linejoin:round;stroke-miterlimit:10;" points="
					441.177,303.405 362.67,293.389 386.742,207.206 391.927,207.932 399.486,208.992 401.463,209.273 425.156,212.588 
					427.042,212.857 438.467,214.458 				"/>
			</g>
			<polyline style="fill:none;stroke:#000000;stroke-linecap:round;stroke-linejoin:round;stroke-miterlimit:10;" points="
				362.67,293.389 353.084,285.312 381.718,203.401 381.721,203.392 381.75,203.403 			"/>
			
				<line style="fill:none;stroke:#000000;stroke-linecap:round;stroke-linejoin:round;stroke-miterlimit:10;" x1="353.082" y1="285.314" x2="366.276" y2="278.579"/>
			<polyline style="fill:none;stroke:#000000;stroke-linecap:round;stroke-linejoin:round;stroke-miterlimit:10;" points="
				435.025,213.757 435.301,210.36 427.249,209.311 			"/>
			<path style="fill:none;stroke:#000000;stroke-linecap:round;stroke-linejoin:round;stroke-miterlimit:10;" d="M399.486,208.992
				l-7.559-1.06l-10.178-4.529l13.819,1.793l1.987,0.253c0.428-2.168,2.134-10.424,7.296-30.414
				c4.962-19.253,9.902-26.511,12.628-26.889c0.776-0.104,1.503,0.435,2.169,1.592c0.072,0.123,0.142,0.277,0.199,0.438
				c-5.727,2.83-10.529,18.438-12.984,27.951C401.365,199.476,399.788,207.332,399.486,208.992z"/>
			
				<line style="fill:none;stroke:#000000;stroke-linecap:round;stroke-linejoin:round;stroke-miterlimit:10;" x1="399.909" y1="205.754" x2="397.556" y2="205.449"/>
			
				<line style="fill:none;stroke:#000000;stroke-linecap:round;stroke-linejoin:round;stroke-miterlimit:10;" x1="381.75" y1="203.403" x2="381.718" y2="203.401"/>
			
				<line style="fill:none;stroke:#000000;stroke-linecap:round;stroke-linejoin:round;stroke-miterlimit:10;" x1="435.305" y1="210.36" x2="429.292" y2="213.114"/>
		</g>
		<g>
			<path style="fill:none;stroke:#000000;stroke-miterlimit:10;" d="M427.042,212.857l-1.886-0.269
				c-0.011-0.057-0.018-0.124-0.012-0.197c0.011-0.285,0.016-0.528,0.022-0.771c0.012-0.145,0.014-0.294,0.016-0.443
				c0.003-0.18,0.007-0.36,0.017-0.559c0.012-0.402,0.022-0.771,0.033-1.056l0.019-0.506c0.525-16.591,1.023-51.09-1.652-55.723
				c-0.396-0.682-0.815-1.16-1.249-1.397c-0.301-0.166-0.609-0.228-0.924-0.186c-0.315,0.042-0.652,0.172-1.027,0.405
				c-2.828,1.791-7.211,9.44-11.597,26.474c-3.827,14.83-5.759,23.205-6.667,27.424c-0.37,1.698-0.577,2.71-0.672,3.219
				l-1.977-0.282c0.302-1.66,1.879-9.516,7.379-30.863c2.454-9.514,7.257-25.121,12.984-27.951c0.432-0.212,0.871-0.357,1.309-0.417
				c0.204-0.031,0.419-0.035,0.65-0.024c1.058,0.055,2.385,0.616,3.521,2.601c3.284,5.684,2.309,44.735,1.919,56.976
				c-0.042,1.479-0.085,2.563-0.103,3.154C427.137,212.604,427.106,212.742,427.042,212.857z"/>
		</g>
		<g>
			<path style="fill:none;stroke:#000000;stroke-miterlimit:10;" d="M425.156,212.588l-23.693-3.315
				c0.095-0.509,0.303-1.52,0.672-3.219l19.073,2.48l1.987,0.254l2.056,0.269l-0.019,0.506c-0.015,0.411-0.024,0.749-0.033,1.056
				c-0.01,0.199-0.014,0.379-0.017,0.559c-0.002,0.149-0.014,0.294-0.016,0.443c-0.006,0.243-0.011,0.487-0.022,0.771
				C425.139,212.464,425.146,212.531,425.156,212.588z"/>
			<path style="fill:none;stroke:#000000;stroke-miterlimit:10;" d="M421.808,149.737c-0.231-0.012-0.446-0.007-0.65,0.024
				c-0.439,0.06-0.878,0.205-1.309,0.417c-0.058-0.16-0.128-0.315-0.199-0.438c-0.666-1.157-1.393-1.697-2.169-1.592
				c-2.726,0.378-7.667,7.635-12.628,26.889c-5.163,19.989-6.868,28.246-7.296,30.414l-1.987-0.253
				c0.387-2.002,2.031-10.036,7.346-30.662c2.636-10.225,7.99-27.505,14.293-28.368c1.135-0.151,2.788,0.169,4.174,2.568
				C421.541,148.996,421.681,149.337,421.808,149.737z"/>
			<path style="fill:none;stroke:#000000;stroke-miterlimit:10;" d="M423.195,208.788l-1.987-0.254
				c0.492-13.453,1.147-46.377-0.808-56.378c0.376-0.233,0.713-0.363,1.027-0.405c0.315-0.042,0.623,0.02,0.924,0.186
				C424.717,164.517,423.388,203.543,423.195,208.788z"/>
		</g>
	</g>
</g>
<g id="Character">
	<g>
		<path style="fill:#FFFFFF;stroke:#263238;stroke-linecap:round;stroke-linejoin:round;stroke-miterlimit:10;" d="M228.612,154.622
			c0,0-0.722,8.665-0.722,18.293c0,9.628,2.166,11.072,2.166,11.072l-32.975-7.462c0,0,2.407-19.737,0-26.477
			c-2.407-6.74-3.37-10.109-3.37-10.109L228.612,154.622z"/>
		<polygon style="fill:#263238;stroke:#263238;stroke-linecap:round;stroke-linejoin:round;stroke-miterlimit:10;" points="
			210.18,149.01 227.972,166.167 229.561,150.599 		"/>
		<path style="fill:#263238;stroke:#263238;stroke-linecap:round;stroke-linejoin:round;stroke-miterlimit:10;" d="M243.304,107.669
			c0,0,7.605-1.165,7.515-10.586c-0.09-9.421-7.96-14.031-15.081-16.965c-7.122-2.934-20.455-8.492-33.668-9.339
			c-13.213-0.847-25.841,5.126-33.198,14.802c-7.357,9.675-8.579,30.351-9.602,47.057c-1.022,16.706-0.327,26.435,1.94,28.273
			c2.267,1.838,20.173,5.299,32.784,5.231c12.611-0.068,15.661-1.719,15.661-1.719s-5.098-10.214-6.282-15.083
			c-1.183-4.87-1.78-6.545-1.78-6.545l-2.723-24.784l26.297-24.743l15.153,6.178l1.001,9.427L243.304,107.669z"/>
		<g>
			<path style="fill:#FFFFFF;stroke:#263238;stroke-linecap:round;stroke-linejoin:round;stroke-miterlimit:10;" d="M217.482,91.622
				c0,0-1.755,3.072-9.655,15.361c-7.9,12.288-9.509,13.313-9.509,13.313s1.902,18.287,2.78,23.846
				c0.878,5.559,19.603,14.337,29.844,15.653c10.24,1.317,11.703-4.242,12.435-5.998c0.732-1.755,5.705-21.798,5.559-25.601
				c-0.146-3.804-7.315-13.751-7.9-18.14c-0.585-4.389-0.878-9.948-0.878-9.948S224.796,92.354,217.482,91.622z"/>
			<path style="fill:none;stroke:#263238;stroke-width:2;stroke-linecap:round;stroke-linejoin:round;stroke-miterlimit:10;" d="
				M213.09,122.516c0,0,1.541-2.568,4.109-3.253c2.568-0.685,4.28,0.342,4.28,0.342"/>
			<path style="fill:#263238;stroke:#263238;stroke-linecap:round;stroke-linejoin:round;stroke-miterlimit:10;" d="
				M219.767,108.819c0,0-4.109-1.027-7.534,1.37c-3.424,2.397-4.452,5.821-4.452,5.821s4.623-3.596,7.191-4.623
				C217.541,110.359,219.767,108.819,219.767,108.819z"/>
			<path style="fill:none;stroke:#263238;stroke-linecap:round;stroke-linejoin:round;stroke-miterlimit:10;" d="M229.869,109.675
				c0,0,1.37,7.191,2.911,9.074c1.541,1.883,11.3,4.28,11.129,5.65c-0.171,1.37-4.109,5.308-5.308,5.479"/>
			<path style="fill:none;stroke:#263238;stroke-linecap:round;stroke-linejoin:round;stroke-miterlimit:10;" d="M237.916,137.24
				c0,0-6.335,4.965-15.752-0.171"/>
			<path style="fill:none;stroke:#263238;stroke-width:2;stroke-linecap:round;stroke-linejoin:round;stroke-miterlimit:10;" d="
				M233.978,116.523c0,0,2.568-3.767,6.164-1.883"/>
			<path style="fill:#263238;stroke:#263238;stroke-linecap:round;stroke-linejoin:round;stroke-miterlimit:10;" d="M230.896,107.62
				c0,0,0.342-2.568,3.938-2.397c3.596,0.171,3.938,3.424,3.938,3.424S234.663,106.935,230.896,107.62z"/>
		</g>
		<path style="fill:#263238;stroke:#263238;stroke-linecap:round;stroke-linejoin:round;stroke-miterlimit:10;" d="M198.019,363.736
			c4.949,12.266,21.057,35.535,31.916,53.624l-11.657,41.383h65.703c0.402-3.655,0.991-13.899-2.297-29.868
			c-4.183-20.318-7.47-40.338-7.47-40.338s4.482-40.637,4.482-51.394c0,0-32.868,12.251-59.76,7.769
			c-26.892-4.482-25.099-3.884-25.099-3.884S191.147,346.704,198.019,363.736z"/>
		
			<line style="fill:none;stroke:#263238;stroke-width:2;stroke-linecap:round;stroke-linejoin:round;stroke-miterlimit:10;" x1="318.628" y1="223.472" x2="312.2" y2="254.88"/>
		
			<line style="fill:none;stroke:#263238;stroke-width:2;stroke-linecap:round;stroke-linejoin:round;stroke-miterlimit:10;" x1="321.375" y1="212.533" x2="317.922" y2="259.358"/>
		<g>
			<g>
				<g>
					<path style="fill:#FFFFFF;stroke:#263238;stroke-linecap:round;stroke-linejoin:round;stroke-miterlimit:10;" d="
						M295.142,222.954c0,0,6.659-9.881,8.377-11.814c1.718-1.933,11.599-5.8,14.607-8.163c3.007-2.363,6.229-11.814,8.377-10.955
						c2.148,0.859,0.859,3.007,0.215,6.014c-0.645,3.007-4.94,8.592-5.37,9.237c-0.43,0.644,9.881,9.022,9.666,10.74
						c-0.215,1.718-1.718,3.007-3.866,4.296c-2.148,1.289-21.266,8.592-21.266,8.592l-6.659,7.733l-6.659-13.747L295.142,222.954z"
						/>
					<g>
						<path style="fill:#FFFFFF;stroke:#263238;stroke-linecap:round;stroke-linejoin:round;stroke-miterlimit:10;" d="
							M328.436,201.473c0,0-9.022-1.933-9.666-0.215c-0.644,1.718-2.148,6.874-1.504,7.733c0.644,0.859,2.792,0.43,2.792,0.43
							l2.363-5.8c0,0,7.303,1.289,7.733,1.074S330.155,201.688,328.436,201.473z"/>
						<path style="fill:#FFFFFF;stroke:#263238;stroke-linecap:round;stroke-linejoin:round;stroke-miterlimit:10;" d="
							M330.155,204.695c0,0-8.628-2.656-9.084-2.048c-0.456,0.608-2.585,8.213-2.281,8.821c0.304,0.608,2.129,1.673,2.585,1.065
							c0.456-0.608,2.585-5.323,2.585-5.323s7.756,1.977,8.212,0.608C332.629,206.45,330.155,204.695,330.155,204.695z"/>
						<path style="fill:#FFFFFF;stroke:#263238;stroke-linecap:round;stroke-linejoin:round;stroke-miterlimit:10;" d="
							M332.173,207.818c0,0-6.692-2.433-8.212-0.608c-1.521,1.825-2.129,3.042-2.585,5.323c-0.456,2.281,0.76,2.737,1.673,3.042
							c0.913,0.304,2.585-3.194,3.346-3.65c0.761-0.456,6.692,1.065,6.692-0.608S332.933,209.187,332.173,207.818z"/>
						<path style="fill:#FFFFFF;stroke:#263238;stroke-linecap:round;stroke-linejoin:round;stroke-miterlimit:10;" d="
							M327.002,215.423c0,0,1.065-0.152,1.977,0.152c0.913,0.304-0.456,2.129-1.065,2.585c-0.608,0.456-3.954,0-4.563-1.217
							c-0.608-1.217,1.521-6.844,1.977-7.452c0.456-0.608,5.627,0.912,5.627,0.912s2.129-0.152,2.129,0.913
							c0,2.118-1.521,7.908-2.129,8.517c-0.608,0.608-2.585,1.521-2.585,1.521"/>
					</g>
				</g>
				<path style="fill:none;stroke:#263238;stroke-linecap:round;stroke-linejoin:round;stroke-miterlimit:10;" d="M302.973,224.395
					c-0.152,0.456,1.369-4.41,2.585-5.323c1.217-0.912,13.992-3.194,13.992-3.194"/>
			</g>
			<polygon style="fill:#B0B0B0;stroke:#263238;stroke-linecap:round;stroke-linejoin:round;stroke-miterlimit:10;" points="
				295.539,220.205 306.42,236.206 298.739,244.527 287.858,226.926 			"/>
			<path style="fill:#B0B0B0;stroke:#263238;stroke-linecap:round;stroke-linejoin:round;stroke-miterlimit:10;" d="
				M298.739,244.527c0,0,2.56,2.56,0.64,5.12c-1.92,2.56-27.842,25.602-27.842,25.602l-1.92-39.044c0,0,14.401-10.241,15.361-10.561
				c0.96-0.32,2.88,1.28,2.88,1.28L298.739,244.527z"/>
		</g>
		<g>
			<path style="fill:#E0E0E0;stroke:#263238;stroke-linecap:round;stroke-linejoin:round;stroke-miterlimit:10;" d="
				M193.238,328.776c0,0-3.586,12.55-2.092,14.94c1.494,2.39,24.8,9.562,46.015,9.263s35.557-6.872,39.442-8.964
				c3.884-2.092,5.378-3.884,5.976-6.872c0.598-2.988-0.896-10.159-0.896-10.159s-22.709,7.769-44.82,8.964
				C214.752,337.142,193.238,328.776,193.238,328.776z"/>
			<path style="fill:#E0E0E0;stroke:#263238;stroke-linecap:round;stroke-linejoin:round;stroke-miterlimit:10;" d="M236.073,186.52
				c0,0-13.556-8.18-28.28-12.855c-14.724-4.674-23.372,12.153-26.644,28.046c-3.272,15.893,10.751,92.085,10.751,92.085
				s-0.935,34.59-0.467,37.862c0.467,3.272,20.1,11.686,36.694,11.92c16.594,0.234,27.345-1.636,34.123-3.272
				c6.778-1.636,17.295-4.908,19.399-7.245c2.103-2.337,2.571-4.441,2.571-7.713s-8.648-74.322-8.648-74.322
				s-6.31-29.682-14.724-41.836C252.433,197.037,236.073,186.52,236.073,186.52z"/>
			<g style="opacity:0.18;">
				<path style="stroke:#000000;stroke-linecap:round;stroke-linejoin:round;stroke-miterlimit:10;" d="M189.906,282.489
					l15.162-10.168l20.444,15.042c0.441,0.324,0.961,0.486,1.482,0.486c0.54,0,1.08-0.175,1.53-0.523l20.07-15.529l21.316,13.754
					c0.934,0.602,2.153,0.516,2.994-0.212l6.161-5.345c-0.244-2.043-0.485-4.05-0.718-5.996l-7.302,6.335l-21.226-13.695
					c-0.891-0.575-2.047-0.525-2.885,0.123l-19.977,15.457l-20.34-14.965c-0.849-0.623-1.998-0.65-2.874-0.063l-14.752,9.893
					C189.313,279.015,189.62,280.822,189.906,282.489z"/>
				<path style="stroke:#000000;stroke-linecap:round;stroke-linejoin:round;stroke-miterlimit:10;" d="M282.724,311.09
					l-9.721,8.434l-21.226-13.695c-0.891-0.575-2.046-0.524-2.885,0.123l-19.977,15.456l-20.34-14.965
					c-0.848-0.623-1.998-0.649-2.874-0.063l-14.289,9.583c-0.035,2.116-0.064,4.173-0.083,6.076l15.699-10.528l20.444,15.042
					c0.441,0.324,0.961,0.486,1.481,0.486c0.54,0,1.08-0.175,1.53-0.522l20.07-15.528l21.316,13.754
					c0.933,0.601,2.153,0.516,2.994-0.212l8.542-7.411C283.205,315.322,282.976,313.294,282.724,311.09z"/>
				<path style="stroke:#000000;stroke-linecap:round;stroke-linejoin:round;stroke-miterlimit:10;" d="M204.578,290.446
					l20.444,15.042c0.441,0.324,0.961,0.486,1.481,0.486c0.54,0,1.08-0.175,1.53-0.523l20.07-15.528l21.315,13.753
					c0.933,0.602,2.154,0.516,2.994-0.212l8.558-7.425c-0.233-1.979-0.471-3.987-0.71-6.004l-9.707,8.422l-21.226-13.694
					c-0.89-0.575-2.046-0.524-2.885,0.123l-19.977,15.456l-20.34-14.965c-0.848-0.624-1.998-0.649-2.874-0.063l-11.492,7.707
					c0.091,0.501,0.141,0.774,0.141,0.774s-0.056,2.073-0.133,5.241L204.578,290.446z"/>
			</g>
			<path style="fill:none;stroke:#263238;stroke-linecap:round;stroke-linejoin:round;stroke-miterlimit:10;" d="M195.781,239.777
				c0,0,11.585-3.686,18.431-8.952c0,0-5.793,12.112-14.218,29.49"/>
			<path style="fill:#E0E0E0;stroke:#263238;stroke-linecap:round;stroke-linejoin:round;stroke-miterlimit:10;" d="
				M183.019,203.113c1.402-17.996,11.452-28.046,26.644-27.812c15.192,0.234,54.456,21.736,54.456,21.736
				s25.709,17.762,28.28,31.552c2.571,13.789-0.935,18.697-6.31,19.632c-5.376,0.935-27.579,2.571-55.859-6.544
				c-28.28-9.115-35.759-20.333-35.759-20.333"/>
		</g>
		
			<line style="fill:none;stroke:#263238;stroke-width:2;stroke-linecap:round;stroke-linejoin:round;stroke-miterlimit:10;" x1="186.069" y1="177.934" x2="173.31" y2="217.606"/>
		<g>
			<path style="fill:#FFFFFF;stroke:#263238;stroke-linecap:round;stroke-linejoin:round;stroke-miterlimit:10;" d="M224.94,174.358
				c0,0-6.67-2.021-11.116-6.67c-4.447-4.649-9.499-6.468-13.946-5.861c-4.447,0.606-9.095,0.606-9.095,0.606
				s3.032-1.011,2.628-2.425c-0.404-1.415-2.425-1.819-4.851-2.628c-2.425-0.808-5.659-1.819-6.063,0
				c-0.404,1.819-3.032,6.872-2.83,9.297c0.202,2.425,3.638,11.116,5.053,12.531c1.415,1.415,8.893,1.819,12.329,2.223
				c3.436,0.404,9.297-1.617,12.733-0.202c3.436,1.415,8.287,3.234,8.287,3.234L224.94,174.358z"/>
			
				<line style="fill:none;stroke:#263238;stroke-linecap:round;stroke-linejoin:round;stroke-miterlimit:10;" x1="190.783" y1="162.433" x2="187.346" y2="160.21"/>
		</g>
		
			<line style="fill:none;stroke:#263238;stroke-width:2;stroke-linecap:round;stroke-linejoin:round;stroke-miterlimit:10;" x1="178.641" y1="216.595" x2="192.648" y2="162.184"/>
		<g>
			<polygon style="fill:#E0E0E0;stroke:#263238;stroke-linecap:round;stroke-linejoin:round;stroke-miterlimit:10;" points="
				226.724,168.29 213.402,184.182 223.92,193.064 238.41,175.768 			"/>
			<path style="fill:#E0E0E0;stroke:#263238;stroke-linecap:round;stroke-linejoin:round;stroke-miterlimit:10;" d="
				M261.548,232.328c-0.701-0.467-33.655-27.111-36.46-30.15c-2.805-3.038-1.169-9.115-1.169-9.115l14.491-17.295
				c0,0,4.908-1.169,10.284,1.636c5.375,2.805,36.694,26.176,43.705,36.46c7.012,10.284,10.828,22.34,7.245,28.28
				c-6.196,10.271-29.232,6.548-29.232,6.548"/>
		</g>
		<g>
			<polygon style="fill:#92E3A9;stroke:#263238;stroke-linecap:round;stroke-linejoin:round;stroke-miterlimit:10;" points="
				149.7,364.224 174.548,340.837 180.103,221.564 167.532,213.964 			"/>
			<g>
				<path style="fill:#92E3A9;stroke:#263238;stroke-linecap:round;stroke-linejoin:round;stroke-miterlimit:10;" d="
					M167.532,213.964c0,0-5.847-2.339-6.724-2.339c-0.877,0-15.494-7.016-15.494-7.016L98.833,339.668
					c0,0,21.048,14.909,30.695,18.71c9.647,3.8,20.171,5.847,20.171,5.847L167.532,213.964z"/>
				
					<line style="fill:none;stroke:#263238;stroke-linecap:round;stroke-linejoin:round;stroke-miterlimit:10;" x1="138.193" y1="349.945" x2="141.514" y2="353.408"/>
				<polyline style="fill:none;stroke:#263238;stroke-linecap:round;stroke-linejoin:round;stroke-miterlimit:10;" points="
					102.926,340.545 127.775,339.083 135.444,347.079 				"/>
				
					<line style="fill:none;stroke:#263238;stroke-linecap:round;stroke-linejoin:round;stroke-miterlimit:10;" x1="139.487" y1="293.083" x2="140.637" y2="288.509"/>
				
					<line style="fill:none;stroke:#263238;stroke-linecap:round;stroke-linejoin:round;stroke-miterlimit:10;" x1="128.944" y1="334.991" x2="138.328" y2="297.687"/>
			</g>
			<g>
				<path style="fill:#949494;stroke:#263238;stroke-linecap:round;stroke-linejoin:round;stroke-miterlimit:10;" d="
					M167.532,213.964l11.109,2.631l10.816-1.462c0,0,1.754,74.253,5.554,99.686s4.093,28.941,4.093,28.941
					s-15.201,0.877-27.772,0.877s-18.125-1.754-18.125-1.754L167.532,213.964z"/>
				<g>
					
						<line style="fill:none;stroke:#263238;stroke-linecap:round;stroke-linejoin:round;stroke-miterlimit:10;" x1="162.343" y1="337.357" x2="175.788" y2="329.223"/>
					
						<line style="fill:none;stroke:#263238;stroke-linecap:round;stroke-linejoin:round;stroke-miterlimit:10;" x1="153.208" y1="342.884" x2="159.428" y2="339.12"/>
					
						<line style="fill:none;stroke:#263238;stroke-linecap:round;stroke-linejoin:round;stroke-miterlimit:10;" x1="177.767" y1="281.174" x2="177.647" y2="230.689"/>
					<polyline style="fill:none;stroke:#263238;stroke-linecap:round;stroke-linejoin:round;stroke-miterlimit:10;" points="
						193.836,341.027 177.879,328.464 177.775,284.733 					"/>
				</g>
			</g>
		</g>
		
			<line style="fill:none;stroke:#263238;stroke-width:2;stroke-linecap:round;stroke-linejoin:round;stroke-miterlimit:10;" x1="192.648" y1="162.184" x2="158.159" y2="210.429"/>
		
			<line style="fill:none;stroke:#263238;stroke-width:2;stroke-linecap:round;stroke-linejoin:round;stroke-miterlimit:10;" x1="328.546" y1="216.86" x2="331.669" y2="260.022"/>
		
			<line style="fill:none;stroke:#263238;stroke-width:2;stroke-linecap:round;stroke-linejoin:round;stroke-miterlimit:10;" x1="328.979" y1="215.575" x2="352.039" y2="259.087"/>
		<g>
			<g>
				<polygon style="fill:#FFFFFF;stroke:#263238;stroke-linecap:round;stroke-linejoin:round;stroke-miterlimit:10;" points="
					343.818,259.937 355.771,261.287 363.483,256.56 414.735,370.259 365.723,390.909 				"/>
				<polygon style="fill:#263238;stroke:#263238;stroke-linecap:round;stroke-linejoin:round;stroke-miterlimit:10;" points="
					365.723,390.909 336.614,371.503 335.37,260.292 343.818,259.937 				"/>
				
					<line style="fill:none;stroke:#263238;stroke-linecap:round;stroke-linejoin:round;stroke-miterlimit:10;" x1="364.757" y1="292.584" x2="365.971" y2="296.367"/>
				
					<line style="fill:none;stroke:#263238;stroke-linecap:round;stroke-linejoin:round;stroke-miterlimit:10;" x1="355.273" y1="263.029" x2="363.469" y2="288.569"/>
				
					<line style="fill:none;stroke:#263238;stroke-linecap:round;stroke-linejoin:round;stroke-miterlimit:10;" x1="392.398" y1="366.513" x2="387.865" y2="365.781"/>
				
					<line style="fill:none;stroke:#263238;stroke-linecap:round;stroke-linejoin:round;stroke-miterlimit:10;" x1="412.496" y1="369.761" x2="397.359" y2="367.315"/>
				
					<line style="fill:none;stroke:#263238;stroke-linecap:round;stroke-linejoin:round;stroke-miterlimit:10;" x1="375.177" y1="377.972" x2="365.723" y2="390.909"/>
			</g>
			<g>
				<path style="fill:#92E3A9;stroke:#263238;stroke-linecap:round;stroke-linejoin:round;stroke-miterlimit:10;" d="
					M315.213,255.942l14.754,2.108l13.85-1.807l20.475,127.064c0,0-12.345,3.613-31.615,4.818
					c-19.27,1.204-25.292,1.204-25.292,1.204L315.213,255.942z"/>
				<polygon style="fill:#92E3A9;stroke:#263238;stroke-linecap:round;stroke-linejoin:round;stroke-miterlimit:10;" points="
					315.213,255.942 298.954,253.835 277.877,364.338 307.385,389.329 				"/>
				
					<line style="fill:none;stroke:#263238;stroke-linecap:round;stroke-linejoin:round;stroke-miterlimit:10;" x1="329.967" y1="258.05" x2="329.967" y2="276.417"/>
				
					<line style="fill:#92E3A9;stroke:#263238;stroke-linecap:round;stroke-linejoin:round;stroke-miterlimit:10;" x1="349.986" y1="377.999" x2="360.98" y2="380.898"/>
				<polyline style="fill:#92E3A9;stroke:#263238;stroke-linecap:round;stroke-linejoin:round;stroke-miterlimit:10;" points="
					307.385,389.329 333.58,373.672 345.46,376.805 				"/>
				
					<line style="fill:none;stroke:#263238;stroke-linecap:round;stroke-linejoin:round;stroke-miterlimit:10;" x1="332.166" y1="358.32" x2="331.473" y2="346.874"/>
				
					<line style="fill:none;stroke:#263238;stroke-linecap:round;stroke-linejoin:round;stroke-miterlimit:10;" x1="332.677" y1="366.747" x2="332.399" y2="362.162"/>
			</g>
		</g>
	</g>
</g>
<g id="Line">
	<g>
		
			<line style="fill:#92E3A9;stroke:#263238;stroke-linecap:round;stroke-linejoin:round;stroke-miterlimit:10;" x1="436.416" y1="458.742" x2="449.404" y2="458.742"/>
		
			<line style="fill:#92E3A9;stroke:#263238;stroke-linecap:round;stroke-linejoin:round;stroke-miterlimit:10;" x1="46.029" y1="458.742" x2="431.221" y2="458.742"/>
	</g>
</g>
</svg>
